/vscmnt/brussel_pixiu_data/_data_brussel/112/vsc11236/PredSimResults/SUBJ06mtu3D/weighted-LRposFixed/expIG/worker_05.mot
version=1
nRows=10
nColumns=50
inDegrees=yes
endheader
                time	         pelvis_tilt	         pelvis_list	     pelvis_rotation	           pelvis_tx	           pelvis_ty	           pelvis_tz	       hip_flexion_r	     hip_adduction_r	      hip_rotation_r	        knee_angle_r	       ankle_angle_r	         mtp_angle_r	       hip_flexion_l	     hip_adduction_l	      hip_rotation_l	        knee_angle_l	       ankle_angle_l	         mtp_angle_l	    lumbar_extension	      lumbar_bending	     lumbar_rotation	 ercspn_r/activation	 intobl_r/activation	 extobl_r/activation	    abd_r/activation	    add_r/activation	hamstrings_r/activation	bifemsh_r/activation	glut_max_r/activation	iliopsoas_r/activation	rect_fem_r/activation	  vasti_r/activation	gastroc_r/activation	 soleus_r/activation	tib_ant_r/activation	 ercspn_l/activation	 intobl_l/activation	 extobl_l/activation	    abd_l/activation	    add_l/activation	hamstrings_l/activation	bifemsh_l/activation	glut_max_l/activation	iliopsoas_l/activation	rect_fem_l/activation	  vasti_l/activation	gastroc_l/activation	 soleus_l/activation	tib_ant_l/activation	
          2.00000002	         -9.73796228	          3.35196151	        -14.17997333	          1.98000002	          0.96146755	          0.00858671	         21.37628805	          4.39127005	         14.80303245	        -21.30960358	         12.57118806	          1.28284286	         17.44892500	          1.08062232	        -10.46758972	        -25.00747635	          5.25044323	         22.31933560	         -2.58199958	          0.20076640	         -8.92284196	          0.21139783	          0.01904029	          0.06813481	          0.06737889	          0.19839949	          0.24805829	          0.01000000	          0.01333329	          0.02179882	          0.06392460	          0.06951960	          0.00999999	          0.01000001	          0.40735264	          0.12732579	          0.16142465	          0.00999999	          0.02590044	          0.00999999	          0.01837225	          0.21934383	          0.01777780	          0.40814169	          0.01000000	          0.01333332	          0.30788865	          0.14416109	          0.01000000	
          2.02000002	         -9.30181794	          3.44157482	        -13.55039386	          1.99781409	          0.95839379	          0.00689235	         20.65526134	          4.26249480	         15.03205089	        -21.53212981	         12.07389495	          1.19531912	         20.31880916	          1.09072424	         -9.55694233	        -33.02518178	          4.92890495	         25.15570370	         -3.06912285	          0.26041973	         -8.33236032	          0.15854837	          0.01428022	          0.05110111	          0.09716268	          0.14879961	          0.18604372	          0.01000000	          0.00999999	          0.01634912	          0.08009929	          0.26661799	          0.09502698	          0.14178621	          0.30551448	          0.15185940	          0.23046929	          0.01000000	          0.01942533	          0.00999999	          0.01377919	          0.18003065	          0.01333335	          0.30610627	          0.17684370	          0.00999999	          0.23091649	          0.10812082	          0.10942934	
          2.04000002	         -8.89121304	          3.39280327	        -12.79018648	          2.01627721	          0.95402829	          0.00491874	         19.28349532	          3.73403103	         14.58368241	        -22.13729403	         13.44834279	          2.60647041	         23.67374064	          1.06493485	         -8.42566891	        -41.76661484	          4.35815077	         25.93629548	         -3.43865501	          0.44656449	         -7.57398741	          0.11891128	          0.03818456	          0.03832583	          0.19459700	          0.11159971	          0.13953279	          0.01000009	          0.03912821	          0.01226184	          0.06007447	          0.28137191	          0.13803360	          0.21324135	          0.22913586	          0.18874497	          0.17285197	          0.24515107	          0.01456900	          0.00999999	          0.01033439	          0.23808934	          0.01000001	          0.25279381	          0.41898718	          0.00999999	          0.17318737	          0.08109061	          0.18429165	
          2.06000002	         -8.56248263	          3.11798523	        -11.97476234	          2.03496379	          0.94976790	          0.00308145	         17.32763759	          3.27176339	         13.76942281	        -21.74447066	         15.22208453	          4.56583453	         27.09157108	          0.93828052	         -7.27686198	        -50.13018493	          3.88249476	         23.33628044	         -3.74860043	          0.79426829	         -6.71475146	          0.08918346	          0.02863842	          0.02874437	          0.27001658	          0.08369978	          0.10464959	          0.01000004	          0.09393812	          0.00999999	          0.04505586	          0.21704226	          0.18791906	          0.27984630	          0.17185190	          0.16679854	          0.13273193	          0.33957976	          0.01092675	          0.00999999	          0.00999999	          0.23457122	          0.00999999	          0.23169512	          0.68714908	          0.00999999	          0.12989052	          0.06081796	          0.32940957	
          2.08000002	         -8.33342906	          2.73045421	        -11.13684857	          2.05328453	          0.94675164	          0.00141796	         15.52657056	          3.01414189	         12.80474842	        -21.38891676	         16.49448939	          6.52815871	         30.20904274	          0.79197736	         -6.25108504	        -56.87263433	          4.25070412	         18.43971705	         -4.07496017	          1.15625370	         -5.84958482	          0.06688759	          0.02147883	          0.02155828	          0.27057854	          0.06277484	          0.08577427	          0.01000002	          0.10601041	          0.00999999	          0.03379190	          0.21250384	          0.22681670	          0.32466440	          0.12888892	          0.12509891	          0.17837181	          0.28797144	          0.00999999	          0.00999999	          0.00999999	          0.23609385	          0.00999999	          0.18776054	          0.84299351	          0.00999999	          0.09741789	          0.04561347	          0.36064482	
          2.10000002	         -8.20128832	          2.41871634	        -10.26737667	          2.07119804	          0.94539581	         -0.00014411	         13.96362536	          2.76936652	         11.72743962	        -21.07626818	         16.99400474	          8.49209842	         32.73503613	          0.78987644	         -5.28764750	        -60.32368842	          5.82621756	         14.31554017	         -4.41616936	          1.32444322	         -4.99412639	          0.05016570	          0.01610913	          0.01616872	          0.25072716	          0.04708113	          0.06433070	          0.01000002	          0.07950781	          0.00999999	          0.02534392	          0.20782903	          0.25192845	          0.33829349	          0.09666669	          0.09382418	          0.19224920	          0.21597858	          0.00999999	          0.00999999	          0.00999999	          0.17707040	          0.00999999	          0.18476721	          0.77935200	          0.00999999	          0.07306342	          0.03421010	          0.34677050	
          2.12000002	         -8.14241903	          2.21541596	         -9.34217274	          2.08888469	          0.94548630	         -0.00169448	         12.43533237	          2.45472422	         10.57791527	        -20.51683445	         16.86888867	         10.42205540	         34.69284429	          0.94077145	         -4.37414058	        -60.62627151	          7.08685479	         11.00559260	         -4.77663120	          1.27831856	         -4.14468825	          0.03762428	          0.01208185	          0.01212654	          0.21526226	          0.03531085	          0.04824803	          0.01000001	          0.05963086	          0.00999999	          0.01900795	          0.16129123	          0.27148667	          0.33463661	          0.07250002	          0.11267438	          0.15439072	          0.16198394	          0.00999999	          0.00999999	          0.00999999	          0.13280280	          0.00999999	          0.17739515	          0.58451400	          0.00999999	          0.05479756	          0.02565758	          0.32235423	
          2.14000002	         -8.13629689	          2.08798943	         -8.37052638	          2.10666800	          0.94646435	         -0.00319145	         10.86125245	          2.10264552	          9.37152837	        -19.69972223	         16.33035014	         12.29838383	         36.05783632	          1.20116601	         -3.46262102	        -58.36137264	          8.15111894	          8.42295119	         -5.12207713	          1.06577078	         -3.30700234	          0.03780051	          0.00999999	          0.01000001	          0.18850175	          0.02648314	          0.03618603	          0.01000001	          0.04472315	          0.00999999	          0.04294655	          0.12096843	          0.28734202	          0.32100019	          0.05437501	          0.13083875	          0.11853940	          0.12148795	          0.00999999	          0.00999999	          0.00999999	          0.09960210	          0.01000000	          0.15916838	          0.43838550	          0.01775879	          0.04109817	          0.01924318	          0.30428453	
          2.16000002	         -8.16953905	          2.00489424	         -7.36287116	          2.12491259	          0.94780491	         -0.00459521	          9.19591109	          1.75167304	          8.10100283	        -18.64703911	         15.52357111	         14.13528035	         36.75198783	          1.53489546	         -2.49467658	        -53.91397785	          8.87037681	          6.41381821	         -5.39980661	          0.73388040	         -2.49711665	          0.03754036	          0.00999999	          0.01000000	          0.17049557	          0.01986235	          0.02713952	          0.01000001	          0.03354236	          0.00999999	          0.06103001	          0.09072632	          0.30181638	          0.30434479	          0.04078126	          0.15092481	          0.08890456	          0.09111596	          0.00999999	          0.00999999	          0.00999999	          0.07470158	          0.02258780	          0.14932477	          0.32878912	          0.01331910	          0.03082363	          0.01443239	          0.28330498	
          2.18000002	         -8.22795285	          1.92709419	         -6.33289498	          2.14395736	          0.94906938	         -0.00585264	          7.38425849	          1.45294475	          6.77420557	        -17.35873965	         14.56443832	         15.93924517	         36.71110794	          1.88244797	         -1.42751566	        -47.59748690	          9.19554875	          4.88465750	         -5.56653911	          0.32954197	         -1.72494410	          0.02815529	          0.00999999	          0.01000000	          0.13318290	          0.01489676	          0.02035464	          0.01000008	          0.02515677	          0.01000000	          0.04577253	          0.06804474	          0.31531694	          0.28776465	          0.03058595	          0.17455643	          0.06667842	          0.06833697	          0.00999999	          0.02346856	          0.00999999	          0.05602618	          0.02595348	          0.13697143	          0.24659184	          0.01000000	          0.02311772	          0.01082429	          0.27232103	
